<svg xmlns="http://www.w3.org/2000/svg" viewBox="0 0 159.49 114.23"><defs><style>.cls-1,.cls-2{fill:#231f20;}.cls-2{stroke:#231f20;stroke-miterlimit:10;}</style></defs><g id="Layer_2" data-name="Layer 2"><g id="Layer_1-2" data-name="Layer 1"><path class="cls-1" d="M25.07,111.81c-.95.44-6.94,3.32-8.08,2.14a.45.45,0,0,1-.12-.34c0-1.71,4.6-8,8.15-8l128.52-.46h0c3.54,0,5.89-3.58,5.91-1.87s-2.3,8.06-5.86,8.07c-1.72,0-5.11,0-9.37-.11C103.49,110.49,37.34,106.2,25.07,111.81Z"/><path class="cls-2" d="M128.58,110c-6.51,0-3.78-.57-4-1.69l1.91-72.38c-.2-1.14-4.85-13.8,1.83-13.83s0,13,.22,14.12l2.17,71.41c.2,1.14,4.53,2.34-2.15,2.37Z"/><path class="cls-1" d="M111.27,39.36a3.12,3.12,0,0,1-3.06-3.72l4.73-24.25a3.1,3.1,0,0,1,3-2.52L140,8a3.12,3.12,0,0,1,3.11,2.24l5,22a1.87,1.87,0,0,1-.45,2c-.56.78-3.18,1.39-4.13,1.43l-32.12,3.68ZM118.59,15,115.1,32.94l27.77-1.27-5-17.33Z"/><path class="cls-1" d="M20.43,97.32c1.72-1.12,4.63-1.18,10.43-1.18h.06c12.17-.07,59.86,7.73,64.36,0a8.51,8.51,0,0,0-.07-8.94c-4.8-8-64.81,0-69.63,0a7.57,7.57,0,0,1-2.31-.42,6.76,6.76,0,0,1-3.13-2.44,6.5,6.5,0,0,1-1-2.17C18.36,79-2.26,16,.2,4.89.47,3.7,1.14.67,3.11.09a2.81,2.81,0,0,1,1.22,0c3.9.76,5.92,12.48,5.92,12.48,6,35.13,9.07,52.7,14,57.2C39,83,83.93,76.22,96.33,79.27a10.2,10.2,0,0,1,4.87,2.56c2.93,2.86,3.13,7,3.23,9,0,.41.22,5.87-2.68,9.94A7.92,7.92,0,0,1,99,103.31a7.45,7.45,0,0,1-3.22.77c-36,.89-63.85-.55-63.85-.55a64.7,64.7,0,0,0-7.06-.25c-2.2,0-3.82.19-5.62,1.87-.11.1-2.53,2-2.56,2C16.4,107.15,16.32,100,20.43,97.32Z"/></g></g></svg>